<mxfile host="Electron" agent="Mozilla/5.0 (Windows NT 10.0; Win64; x64) AppleWebKit/537.36 (KHTML, like Gecko) draw.io/28.0.6 Chrome/138.0.7204.100 Electron/37.2.3 Safari/537.36" version="28.0.6">
  <diagram name="Page-1" id="Hnw-s1tRD2DG_9T0j3i2">
    <mxGraphModel dx="1426" dy="841" grid="1" gridSize="10" guides="1" tooltips="1" connect="1" arrows="1" fold="1" page="1" pageScale="1" pageWidth="850" pageHeight="1100" math="0" shadow="0">
      <root>
        <mxCell id="0" />
        <mxCell id="1" parent="0" />
        <mxCell id="txmhC7ABkBW3NsBK9lYG-10" value="Invitation Manager" style="shape=umlLifeline;perimeter=lifelinePerimeter;whiteSpace=wrap;html=1;container=1;dropTarget=0;collapsible=0;recursiveResize=0;outlineConnect=0;portConstraint=eastwest;newEdgeStyle={&quot;curved&quot;:0,&quot;rounded&quot;:0};" vertex="1" parent="1">
          <mxGeometry x="120" y="50" width="90" height="770" as="geometry" />
        </mxCell>
        <mxCell id="txmhC7ABkBW3NsBK9lYG-25" value="get lounges(airport)" style="html=1;verticalAlign=bottom;endArrow=block;curved=0;rounded=0;entryX=0;entryY=0;entryDx=0;entryDy=5;exitX=0;exitY=0;exitDx=0;exitDy=5;exitPerimeter=0;" edge="1" parent="txmhC7ABkBW3NsBK9lYG-10" target="txmhC7ABkBW3NsBK9lYG-22">
          <mxGeometry relative="1" as="geometry">
            <mxPoint x="50" y="385" as="sourcePoint" />
          </mxGeometry>
        </mxCell>
        <mxCell id="txmhC7ABkBW3NsBK9lYG-26" value="return" style="html=1;verticalAlign=bottom;endArrow=open;dashed=1;endSize=8;curved=0;rounded=0;" edge="1" parent="txmhC7ABkBW3NsBK9lYG-10" source="txmhC7ABkBW3NsBK9lYG-11">
          <mxGeometry relative="1" as="geometry">
            <mxPoint x="55" y="439" as="targetPoint" />
            <mxPoint x="210" y="439" as="sourcePoint" />
          </mxGeometry>
        </mxCell>
        <mxCell id="txmhC7ABkBW3NsBK9lYG-57" value="" style="html=1;points=[[0,0,0,0,5],[0,1,0,0,-5],[1,0,0,0,5],[1,1,0,0,-5]];perimeter=orthogonalPerimeter;outlineConnect=0;targetShapes=umlLifeline;portConstraint=eastwest;newEdgeStyle={&quot;curved&quot;:0,&quot;rounded&quot;:0};" vertex="1" parent="txmhC7ABkBW3NsBK9lYG-10">
          <mxGeometry x="40" y="260" width="10" height="90" as="geometry" />
        </mxCell>
        <mxCell id="txmhC7ABkBW3NsBK9lYG-58" value="" style="html=1;points=[[0,0,0,0,5],[0,1,0,0,-5],[1,0,0,0,5],[1,1,0,0,-5]];perimeter=orthogonalPerimeter;outlineConnect=0;targetShapes=umlLifeline;portConstraint=eastwest;newEdgeStyle={&quot;curved&quot;:0,&quot;rounded&quot;:0};" vertex="1" parent="txmhC7ABkBW3NsBK9lYG-10">
          <mxGeometry x="40" y="370" width="10" height="200" as="geometry" />
        </mxCell>
        <mxCell id="txmhC7ABkBW3NsBK9lYG-65" value="" style="html=1;points=[[0,0,0,0,5],[0,1,0,0,-5],[1,0,0,0,5],[1,1,0,0,-5]];perimeter=orthogonalPerimeter;outlineConnect=0;targetShapes=umlLifeline;portConstraint=eastwest;newEdgeStyle={&quot;curved&quot;:0,&quot;rounded&quot;:0};" vertex="1" parent="txmhC7ABkBW3NsBK9lYG-10">
          <mxGeometry x="40" y="600" width="10" height="170" as="geometry" />
        </mxCell>
        <mxCell id="txmhC7ABkBW3NsBK9lYG-31" value="" style="html=1;points=[[0,0,0,0,5],[0,1,0,0,-5],[1,0,0,0,5],[1,1,0,0,-5]];perimeter=orthogonalPerimeter;outlineConnect=0;targetShapes=umlLifeline;portConstraint=eastwest;newEdgeStyle={&quot;curved&quot;:0,&quot;rounded&quot;:0};" vertex="1" parent="txmhC7ABkBW3NsBK9lYG-10">
          <mxGeometry x="40" y="80" width="10" height="150" as="geometry" />
        </mxCell>
        <mxCell id="txmhC7ABkBW3NsBK9lYG-11" value="API AENA" style="shape=umlLifeline;perimeter=lifelinePerimeter;whiteSpace=wrap;html=1;container=1;dropTarget=0;collapsible=0;recursiveResize=0;outlineConnect=0;portConstraint=eastwest;newEdgeStyle={&quot;curved&quot;:0,&quot;rounded&quot;:0};" vertex="1" parent="1">
          <mxGeometry x="390" y="50" width="70" height="780" as="geometry" />
        </mxCell>
        <mxCell id="txmhC7ABkBW3NsBK9lYG-17" value="" style="html=1;points=[[0,0,0,0,5],[0,1,0,0,-5],[1,0,0,0,5],[1,1,0,0,-5]];perimeter=orthogonalPerimeter;outlineConnect=0;targetShapes=umlLifeline;portConstraint=eastwest;newEdgeStyle={&quot;curved&quot;:0,&quot;rounded&quot;:0};" vertex="1" parent="txmhC7ABkBW3NsBK9lYG-11">
          <mxGeometry x="30.5" y="270" width="10" height="60" as="geometry" />
        </mxCell>
        <mxCell id="txmhC7ABkBW3NsBK9lYG-22" value="" style="html=1;points=[[0,0,0,0,5],[0,1,0,0,-5],[1,0,0,0,5],[1,1,0,0,-5]];perimeter=orthogonalPerimeter;outlineConnect=0;targetShapes=umlLifeline;portConstraint=eastwest;newEdgeStyle={&quot;curved&quot;:0,&quot;rounded&quot;:0};" vertex="1" parent="txmhC7ABkBW3NsBK9lYG-11">
          <mxGeometry x="29" y="380" width="10" height="70" as="geometry" />
        </mxCell>
        <mxCell id="txmhC7ABkBW3NsBK9lYG-28" value="" style="html=1;points=[[0,0,0,0,5],[0,1,0,0,-5],[1,0,0,0,5],[1,1,0,0,-5]];perimeter=orthogonalPerimeter;outlineConnect=0;targetShapes=umlLifeline;portConstraint=eastwest;newEdgeStyle={&quot;curved&quot;:0,&quot;rounded&quot;:0};" vertex="1" parent="txmhC7ABkBW3NsBK9lYG-11">
          <mxGeometry x="30.5" y="498" width="10" height="62" as="geometry" />
        </mxCell>
        <mxCell id="txmhC7ABkBW3NsBK9lYG-32" value="" style="html=1;points=[[0,0,0,0,5],[0,1,0,0,-5],[1,0,0,0,5],[1,1,0,0,-5]];perimeter=orthogonalPerimeter;outlineConnect=0;targetShapes=umlLifeline;portConstraint=eastwest;newEdgeStyle={&quot;curved&quot;:0,&quot;rounded&quot;:0};" vertex="1" parent="txmhC7ABkBW3NsBK9lYG-11">
          <mxGeometry x="29" y="610" width="10" height="60" as="geometry" />
        </mxCell>
        <mxCell id="txmhC7ABkBW3NsBK9lYG-49" value="" style="html=1;points=[[0,0,0,0,5],[0,1,0,0,-5],[1,0,0,0,5],[1,1,0,0,-5]];perimeter=orthogonalPerimeter;outlineConnect=0;targetShapes=umlLifeline;portConstraint=eastwest;newEdgeStyle={&quot;curved&quot;:0,&quot;rounded&quot;:0};" vertex="1" parent="txmhC7ABkBW3NsBK9lYG-11">
          <mxGeometry x="185" y="90" width="10" height="80" as="geometry" />
        </mxCell>
        <mxCell id="txmhC7ABkBW3NsBK9lYG-51" value="Invitations Available" style="html=1;verticalAlign=bottom;endArrow=block;curved=0;rounded=0;" edge="1" parent="txmhC7ABkBW3NsBK9lYG-11" source="txmhC7ABkBW3NsBK9lYG-10">
          <mxGeometry relative="1" as="geometry">
            <mxPoint x="-180" y="110" as="sourcePoint" />
            <mxPoint x="189.5" y="110" as="targetPoint" />
          </mxGeometry>
        </mxCell>
        <mxCell id="txmhC7ABkBW3NsBK9lYG-53" value="return" style="html=1;verticalAlign=bottom;endArrow=open;dashed=1;endSize=8;curved=0;rounded=0;" edge="1" parent="txmhC7ABkBW3NsBK9lYG-11" target="txmhC7ABkBW3NsBK9lYG-10">
          <mxGeometry relative="1" as="geometry">
            <mxPoint x="-177.5" y="140" as="targetPoint" />
            <mxPoint x="189.5" y="140" as="sourcePoint" />
          </mxGeometry>
        </mxCell>
        <mxCell id="txmhC7ABkBW3NsBK9lYG-18" value="get airports" style="html=1;verticalAlign=bottom;endArrow=block;curved=0;rounded=0;entryX=0;entryY=0;entryDx=0;entryDy=5;exitX=0;exitY=0;exitDx=0;exitDy=5;exitPerimeter=0;" edge="1" target="txmhC7ABkBW3NsBK9lYG-17" parent="1">
          <mxGeometry relative="1" as="geometry">
            <mxPoint x="170" y="325" as="sourcePoint" />
          </mxGeometry>
        </mxCell>
        <mxCell id="txmhC7ABkBW3NsBK9lYG-19" value="return" style="html=1;verticalAlign=bottom;endArrow=open;dashed=1;endSize=8;curved=0;rounded=0;" edge="1" source="txmhC7ABkBW3NsBK9lYG-17" parent="1">
          <mxGeometry relative="1" as="geometry">
            <mxPoint x="169.5" y="372" as="targetPoint" />
            <mxPoint x="330" y="372" as="sourcePoint" />
          </mxGeometry>
        </mxCell>
        <mxCell id="txmhC7ABkBW3NsBK9lYG-29" value="get disponibility(lounge)" style="html=1;verticalAlign=bottom;endArrow=block;curved=0;rounded=0;entryX=0;entryY=0;entryDx=0;entryDy=5;exitX=0;exitY=0;exitDx=0;exitDy=5;exitPerimeter=0;" edge="1" parent="1" target="txmhC7ABkBW3NsBK9lYG-28">
          <mxGeometry relative="1" as="geometry">
            <mxPoint x="167" y="553" as="sourcePoint" />
          </mxGeometry>
        </mxCell>
        <mxCell id="txmhC7ABkBW3NsBK9lYG-30" value="return" style="html=1;verticalAlign=bottom;endArrow=open;dashed=1;endSize=8;curved=0;rounded=0;" edge="1" parent="1" source="txmhC7ABkBW3NsBK9lYG-11">
          <mxGeometry relative="1" as="geometry">
            <mxPoint x="172" y="599" as="targetPoint" />
            <mxPoint x="327" y="599" as="sourcePoint" />
          </mxGeometry>
        </mxCell>
        <mxCell id="txmhC7ABkBW3NsBK9lYG-33" value="reservelounge(lounge+data)" style="html=1;verticalAlign=bottom;endArrow=block;curved=0;rounded=0;entryX=0;entryY=0;entryDx=0;entryDy=5;" edge="1" parent="1" target="txmhC7ABkBW3NsBK9lYG-32">
          <mxGeometry relative="1" as="geometry">
            <mxPoint x="169.5" y="665" as="sourcePoint" />
          </mxGeometry>
        </mxCell>
        <mxCell id="txmhC7ABkBW3NsBK9lYG-34" value="return QR+data" style="html=1;verticalAlign=bottom;endArrow=open;dashed=1;endSize=8;curved=0;rounded=0;" edge="1" parent="1" source="txmhC7ABkBW3NsBK9lYG-11">
          <mxGeometry relative="1" as="geometry">
            <mxPoint x="172" y="714" as="targetPoint" />
            <mxPoint x="403" y="714" as="sourcePoint" />
          </mxGeometry>
        </mxCell>
        <mxCell id="txmhC7ABkBW3NsBK9lYG-36" value="CRM" style="shape=umlLifeline;perimeter=lifelinePerimeter;whiteSpace=wrap;html=1;container=1;dropTarget=0;collapsible=0;recursiveResize=0;outlineConnect=0;portConstraint=eastwest;newEdgeStyle={&quot;curved&quot;:0,&quot;rounded&quot;:0};" vertex="1" parent="1">
          <mxGeometry x="620" y="50" width="100" height="770" as="geometry" />
        </mxCell>
        <mxCell id="txmhC7ABkBW3NsBK9lYG-38" value="" style="html=1;points=[[0,0,0,0,5],[0,1,0,0,-5],[1,0,0,0,5],[1,1,0,0,-5]];perimeter=orthogonalPerimeter;outlineConnect=0;targetShapes=umlLifeline;portConstraint=eastwest;newEdgeStyle={&quot;curved&quot;:0,&quot;rounded&quot;:0};" vertex="1" parent="txmhC7ABkBW3NsBK9lYG-36">
          <mxGeometry x="50" y="720" width="10" height="80" as="geometry" />
        </mxCell>
        <mxCell id="txmhC7ABkBW3NsBK9lYG-39" value="send Email(QR + data)" style="html=1;verticalAlign=bottom;endArrow=block;curved=0;rounded=0;entryX=0;entryY=0;entryDx=0;entryDy=5;exitX=1;exitY=0;exitDx=0;exitDy=5;exitPerimeter=0;" edge="1" parent="1">
          <mxGeometry relative="1" as="geometry">
            <mxPoint x="177" y="800" as="sourcePoint" />
            <mxPoint x="672" y="800" as="targetPoint" />
          </mxGeometry>
        </mxCell>
        <mxCell id="txmhC7ABkBW3NsBK9lYG-42" value="invitated" style="shape=umlLifeline;perimeter=lifelinePerimeter;whiteSpace=wrap;html=1;container=1;dropTarget=0;collapsible=0;recursiveResize=0;outlineConnect=0;portConstraint=eastwest;newEdgeStyle={&quot;curved&quot;:0,&quot;rounded&quot;:0};participant=umlActor;" vertex="1" parent="1">
          <mxGeometry x="770" y="50" width="20" height="790" as="geometry" />
        </mxCell>
        <mxCell id="txmhC7ABkBW3NsBK9lYG-44" value="" style="html=1;points=[[0,0,0,0,5],[0,1,0,0,-5],[1,0,0,0,5],[1,1,0,0,-5]];perimeter=orthogonalPerimeter;outlineConnect=0;targetShapes=umlLifeline;portConstraint=eastwest;newEdgeStyle={&quot;curved&quot;:0,&quot;rounded&quot;:0};" vertex="1" parent="txmhC7ABkBW3NsBK9lYG-42">
          <mxGeometry x="10" y="730" width="10" height="80" as="geometry" />
        </mxCell>
        <mxCell id="txmhC7ABkBW3NsBK9lYG-45" value="" style="html=1;verticalAlign=bottom;endArrow=block;curved=0;rounded=0;" edge="1" parent="1" source="txmhC7ABkBW3NsBK9lYG-38" target="txmhC7ABkBW3NsBK9lYG-44">
          <mxGeometry relative="1" as="geometry">
            <mxPoint x="645" y="794" as="sourcePoint" />
            <mxPoint x="714.5" y="794" as="targetPoint" />
          </mxGeometry>
        </mxCell>
        <mxCell id="txmhC7ABkBW3NsBK9lYG-46" value="formatted email" style="edgeLabel;html=1;align=center;verticalAlign=middle;resizable=0;points=[];" vertex="1" connectable="0" parent="txmhC7ABkBW3NsBK9lYG-45">
          <mxGeometry x="-0.0557" relative="1" as="geometry">
            <mxPoint as="offset" />
          </mxGeometry>
        </mxCell>
        <mxCell id="txmhC7ABkBW3NsBK9lYG-47" value="VIP" style="shape=umlLifeline;perimeter=lifelinePerimeter;whiteSpace=wrap;html=1;container=1;dropTarget=0;collapsible=0;recursiveResize=0;outlineConnect=0;portConstraint=eastwest;newEdgeStyle={&quot;curved&quot;:0,&quot;rounded&quot;:0};participant=umlActor;" vertex="1" parent="1">
          <mxGeometry x="30" y="50" width="20" height="760" as="geometry" />
        </mxCell>
        <mxCell id="txmhC7ABkBW3NsBK9lYG-68" value="" style="html=1;points=[[0,0,0,0,5],[0,1,0,0,-5],[1,0,0,0,5],[1,1,0,0,-5]];perimeter=orthogonalPerimeter;outlineConnect=0;targetShapes=umlLifeline;portConstraint=eastwest;newEdgeStyle={&quot;curved&quot;:0,&quot;rounded&quot;:0};" vertex="1" parent="txmhC7ABkBW3NsBK9lYG-47">
          <mxGeometry x="8.5" y="80" width="10" height="680" as="geometry" />
        </mxCell>
        <mxCell id="txmhC7ABkBW3NsBK9lYG-48" value="Loyalty" style="shape=umlLifeline;perimeter=lifelinePerimeter;whiteSpace=wrap;html=1;container=1;dropTarget=0;collapsible=0;recursiveResize=0;outlineConnect=0;portConstraint=eastwest;newEdgeStyle={&quot;curved&quot;:0,&quot;rounded&quot;:0};" vertex="1" parent="1">
          <mxGeometry x="490" y="50" width="100" height="760" as="geometry" />
        </mxCell>
        <mxCell id="txmhC7ABkBW3NsBK9lYG-50" value="" style="html=1;verticalAlign=bottom;endArrow=block;curved=0;rounded=0;entryX=0;entryY=0;entryDx=0;entryDy=5;" edge="1" parent="1">
          <mxGeometry relative="1" as="geometry">
            <mxPoint x="46.5" y="140" as="sourcePoint" />
            <mxPoint x="167" y="140" as="targetPoint" />
          </mxGeometry>
        </mxCell>
        <mxCell id="txmhC7ABkBW3NsBK9lYG-54" value="check invitations" style="edgeLabel;html=1;align=center;verticalAlign=middle;resizable=0;points=[];" vertex="1" connectable="0" parent="txmhC7ABkBW3NsBK9lYG-50">
          <mxGeometry x="-0.0041" relative="1" as="geometry">
            <mxPoint as="offset" />
          </mxGeometry>
        </mxCell>
        <mxCell id="txmhC7ABkBW3NsBK9lYG-55" value="" style="html=1;verticalAlign=bottom;endArrow=block;curved=0;rounded=0;entryX=0;entryY=0;entryDx=0;entryDy=5;" edge="1" parent="1">
          <mxGeometry relative="1" as="geometry">
            <mxPoint x="45.5" y="319" as="sourcePoint" />
            <mxPoint x="166" y="319" as="targetPoint" />
          </mxGeometry>
        </mxCell>
        <mxCell id="txmhC7ABkBW3NsBK9lYG-56" value="check airport" style="edgeLabel;html=1;align=center;verticalAlign=middle;resizable=0;points=[];" vertex="1" connectable="0" parent="txmhC7ABkBW3NsBK9lYG-55">
          <mxGeometry x="-0.0041" relative="1" as="geometry">
            <mxPoint as="offset" />
          </mxGeometry>
        </mxCell>
        <mxCell id="txmhC7ABkBW3NsBK9lYG-59" value="" style="html=1;verticalAlign=bottom;endArrow=block;curved=0;rounded=0;entryX=0;entryY=0;entryDx=0;entryDy=5;" edge="1" parent="1">
          <mxGeometry relative="1" as="geometry">
            <mxPoint x="43.5" y="440" as="sourcePoint" />
            <mxPoint x="164" y="440" as="targetPoint" />
          </mxGeometry>
        </mxCell>
        <mxCell id="txmhC7ABkBW3NsBK9lYG-60" value="get lounges" style="edgeLabel;html=1;align=center;verticalAlign=middle;resizable=0;points=[];" vertex="1" connectable="0" parent="txmhC7ABkBW3NsBK9lYG-59">
          <mxGeometry x="-0.0041" relative="1" as="geometry">
            <mxPoint as="offset" />
          </mxGeometry>
        </mxCell>
        <mxCell id="txmhC7ABkBW3NsBK9lYG-66" value="return" style="html=1;verticalAlign=bottom;endArrow=open;dashed=1;endSize=8;curved=0;rounded=0;" edge="1" parent="1">
          <mxGeometry relative="1" as="geometry">
            <mxPoint x="43" y="270" as="targetPoint" />
            <mxPoint x="163.5" y="270" as="sourcePoint" />
          </mxGeometry>
        </mxCell>
        <mxCell id="txmhC7ABkBW3NsBK9lYG-67" value="return" style="html=1;verticalAlign=bottom;endArrow=open;dashed=1;endSize=8;curved=0;rounded=0;" edge="1" parent="1">
          <mxGeometry relative="1" as="geometry">
            <mxPoint x="43.5" y="380" as="targetPoint" />
            <mxPoint x="163.5" y="380" as="sourcePoint" />
          </mxGeometry>
        </mxCell>
        <mxCell id="txmhC7ABkBW3NsBK9lYG-69" value="return" style="html=1;verticalAlign=bottom;endArrow=open;dashed=1;endSize=8;curved=0;rounded=0;" edge="1" parent="1">
          <mxGeometry relative="1" as="geometry">
            <mxPoint x="53.5" y="610" as="targetPoint" />
            <mxPoint x="167.5" y="610" as="sourcePoint" />
          </mxGeometry>
        </mxCell>
        <mxCell id="txmhC7ABkBW3NsBK9lYG-70" value="create Invitation" style="html=1;verticalAlign=bottom;endArrow=block;curved=0;rounded=0;entryX=0;entryY=0;entryDx=0;entryDy=5;" edge="1" parent="1">
          <mxGeometry relative="1" as="geometry">
            <mxPoint x="46.5" y="660" as="sourcePoint" />
            <mxPoint x="167" y="660" as="targetPoint" />
          </mxGeometry>
        </mxCell>
        <mxCell id="txmhC7ABkBW3NsBK9lYG-72" value="return" style="html=1;verticalAlign=bottom;endArrow=open;dashed=1;endSize=8;curved=0;rounded=0;" edge="1" parent="1">
          <mxGeometry relative="1" as="geometry">
            <mxPoint x="43.5" y="770" as="targetPoint" />
            <mxPoint x="157.5" y="770" as="sourcePoint" />
          </mxGeometry>
        </mxCell>
        <mxCell id="txmhC7ABkBW3NsBK9lYG-73" value="Database" style="shape=umlLifeline;perimeter=lifelinePerimeter;whiteSpace=wrap;html=1;container=1;dropTarget=0;collapsible=0;recursiveResize=0;outlineConnect=0;portConstraint=eastwest;newEdgeStyle={&quot;curved&quot;:0,&quot;rounded&quot;:0};" vertex="1" parent="1">
          <mxGeometry x="227" y="50" width="100" height="770" as="geometry" />
        </mxCell>
        <mxCell id="txmhC7ABkBW3NsBK9lYG-75" value="" style="html=1;points=[[0,0,0,0,5],[0,1,0,0,-5],[1,0,0,0,5],[1,1,0,0,-5]];perimeter=orthogonalPerimeter;outlineConnect=0;targetShapes=umlLifeline;portConstraint=eastwest;newEdgeStyle={&quot;curved&quot;:0,&quot;rounded&quot;:0};" vertex="1" parent="txmhC7ABkBW3NsBK9lYG-73">
          <mxGeometry x="45" y="150" width="10" height="60" as="geometry" />
        </mxCell>
        <mxCell id="txmhC7ABkBW3NsBK9lYG-74" value="Invitations" style="html=1;verticalAlign=bottom;endArrow=block;curved=0;rounded=0;" edge="1" parent="txmhC7ABkBW3NsBK9lYG-73">
          <mxGeometry relative="1" as="geometry">
            <mxPoint x="-50" y="170" as="sourcePoint" />
            <mxPoint x="43" y="170" as="targetPoint" />
          </mxGeometry>
        </mxCell>
        <mxCell id="txmhC7ABkBW3NsBK9lYG-77" value="" style="html=1;points=[[0,0,0,0,5],[0,1,0,0,-5],[1,0,0,0,5],[1,1,0,0,-5]];perimeter=orthogonalPerimeter;outlineConnect=0;targetShapes=umlLifeline;portConstraint=eastwest;newEdgeStyle={&quot;curved&quot;:0,&quot;rounded&quot;:0};" vertex="1" parent="txmhC7ABkBW3NsBK9lYG-73">
          <mxGeometry x="45" y="680" width="10" height="60" as="geometry" />
        </mxCell>
        <mxCell id="txmhC7ABkBW3NsBK9lYG-76" value="return" style="html=1;verticalAlign=bottom;endArrow=open;dashed=1;endSize=8;curved=0;rounded=0;" edge="1" parent="1">
          <mxGeometry relative="1" as="geometry">
            <mxPoint x="177" y="247" as="targetPoint" />
            <mxPoint x="270" y="247" as="sourcePoint" />
          </mxGeometry>
        </mxCell>
        <mxCell id="txmhC7ABkBW3NsBK9lYG-78" value="save invitation" style="html=1;verticalAlign=bottom;endArrow=block;curved=0;rounded=0;" edge="1" parent="1">
          <mxGeometry relative="1" as="geometry">
            <mxPoint x="167" y="750" as="sourcePoint" />
            <mxPoint x="279" y="750" as="targetPoint" />
          </mxGeometry>
        </mxCell>
      </root>
    </mxGraphModel>
  </diagram>
</mxfile>
